<svg width="40" height="40" viewBox="0 0 40 40" fill="none" xmlns="http://www.w3.org/2000/svg">
<g clip-path="url(#clip0_96_6)">
<path d="M20.2118 6.99994H19.4921C18.6244 6.99994 17.7922 7.35113 17.1787 7.97625C16.5651 8.60137 16.2204 9.44922 16.2204 10.3333V10.6333C16.2199 11.2178 16.0684 11.7919 15.7813 12.298C15.4942 12.8041 15.0815 13.2243 14.5846 13.5166L13.8813 13.9333C13.3839 14.2258 12.8197 14.3799 12.2454 14.3799C11.6712 14.3799 11.107 14.2258 10.6096 13.9333L10.3643 13.7999C9.61355 13.3587 8.72166 13.239 7.8844 13.4671C7.04714 13.6952 6.33293 14.2525 5.89854 15.0166L5.53866 15.6499C5.1056 16.4148 4.98812 17.3235 5.212 18.1766C5.43589 19.0297 5.98284 19.7574 6.7328 20.1999L6.97817 20.3666C7.47263 20.6575 7.88378 21.0751 8.17075 21.578C8.45772 22.0809 8.61052 22.6516 8.61397 23.2333V24.0833C8.61626 24.6706 8.46617 25.2482 8.17892 25.7575C7.89166 26.2667 7.47743 26.6896 6.97817 26.9833L6.7328 27.1333C5.98284 27.5759 5.43589 28.3035 5.212 29.1566C4.98812 30.0097 5.1056 30.9184 5.53866 31.6833L5.89854 32.3166C6.33293 33.0807 7.04714 33.638 7.8844 33.8661C8.72166 34.0942 9.61355 33.9745 10.3643 33.5333L10.6096 33.3999C11.107 33.1074 11.6712 32.9534 12.2454 32.9534C12.8197 32.9534 13.3839 33.1074 13.8813 33.3999L14.5846 33.8166C15.0815 34.1089 15.4942 34.5291 15.7813 35.0352C16.0684 35.5413 16.2199 36.1154 16.2204 36.6999V36.9999C16.2204 37.884 16.5651 38.7318 17.1787 39.357C17.7922 39.9821 18.6244 40.3333 19.4921 40.3333H20.2118C21.0795 40.3333 21.9116 39.9821 22.5252 39.357C23.1387 38.7318 23.4834 37.884 23.4834 36.9999V36.6999C23.484 36.1154 23.6354 35.5413 23.9226 35.0352C24.2097 34.5291 24.6224 34.1089 25.1192 33.8166L25.8226 33.3999C26.32 33.1074 26.8841 32.9534 27.4584 32.9534C28.0327 32.9534 28.5969 33.1074 29.0942 33.3999L29.3396 33.5333C30.0903 33.9745 30.9822 34.0942 31.8195 33.8661C32.6567 33.638 33.3709 33.0807 33.8053 32.3166L34.1652 31.6666C34.5983 30.9017 34.7157 29.993 34.4919 29.1399C34.268 28.2869 33.721 27.5592 32.9711 27.1166L32.7257 26.9833C32.2264 26.6896 31.8122 26.2667 31.5249 25.7575C31.2377 25.2482 31.0876 24.6706 31.0899 24.0833V23.2499C31.0876 22.6626 31.2377 22.085 31.5249 21.5758C31.8122 21.0665 32.2264 20.6436 32.7257 20.3499L32.9711 20.1999C33.721 19.7574 34.268 19.0297 34.4919 18.1766C34.7157 17.3235 34.5983 16.4148 34.1652 15.6499L33.8053 15.0166C33.3709 14.2525 32.6567 13.6952 31.8195 13.4671C30.9822 13.239 30.0903 13.3587 29.3396 13.7999L29.0942 13.9333C28.5969 14.2258 28.0327 14.3799 27.4584 14.3799C26.8841 14.3799 26.32 14.2258 25.8226 13.9333L25.1192 13.5166C24.6224 13.2243 24.2097 12.8041 23.9226 12.298C23.6354 11.7919 23.484 11.2178 23.4834 10.6333V10.3333C23.4834 9.44922 23.1387 8.60137 22.5252 7.97625C21.9116 7.35113 21.0795 6.99994 20.2118 6.99994Z" stroke="black" stroke-width="3" stroke-linecap="round" stroke-linejoin="round"/>
<path d="M19.8519 29C22.5622 29 24.7593 26.7614 24.7593 24C24.7593 21.2386 22.5622 19 19.8519 19C17.1416 19 14.9445 21.2386 14.9445 24C14.9445 26.7614 17.1416 29 19.8519 29Z" stroke="black" stroke-width="2" stroke-linecap="round" stroke-linejoin="round"/>
</g>
<defs>
<clipPath id="clip0_96_6">
<rect width="39.2593" height="40" fill="white" transform="translate(0.22229)"/>
</clipPath>
</defs>
</svg>
