<svg width="24" height="24" viewBox="0 0 24 24" fill="none" xmlns="http://www.w3.org/2000/svg">
<path d="M13 3C11.6739 4.32608 10.9289 6.12464 10.9289 8C10.9289 9.87536 11.6739 11.6739 13 13C14.3261 14.3261 16.1246 15.0711 18 15.0711C19.8754 15.0711 21.6739 14.3261 23 13C23 14.9778 22.4135 16.9112 21.3147 18.5557C20.2159 20.2002 18.6541 21.4819 16.8268 22.2388C14.9996 22.9957 12.9889 23.1937 11.0491 22.8078C9.10928 22.422 7.32745 21.4696 5.92893 20.0711C4.5304 18.6725 3.578 16.8907 3.19214 14.9509C2.80629 13.0111 3.00433 11.0004 3.7612 9.17316C4.51808 7.3459 5.7998 5.78412 7.44429 4.6853C9.08879 3.58649 11.0222 3 13 3Z" stroke="white" stroke-width="2" stroke-linecap="round" stroke-linejoin="round"/>
</svg>
